<?xml version="1.0" encoding="UTF-8"?><svg xmlns="http://www.w3.org/2000/svg" xmlns:xlink="http://www.w3.org/1999/xlink" fill-opacity="1" color-rendering="auto" color-interpolation="auto" text-rendering="auto" stroke="black" stroke-linecap="square" width="533" stroke-miterlimit="10" shape-rendering="auto" stroke-opacity="1" fill="black" stroke-dasharray="none" font-weight="normal" stroke-width="1" height="209" font-family="'Dialog'" font-style="normal" stroke-linejoin="miter" font-size="12px" stroke-dashoffset="0" image-rendering="auto">
  <!--Generated by ySVG 2.5-->
  <defs id="genericDefs"/>
  <g>
    <defs id="defs1">
      <clipPath clipPathUnits="userSpaceOnUse" id="clipPath1">
        <path d="M0 0 L533 0 L533 209 L0 209 L0 0 Z"/>
      </clipPath>
      <clipPath clipPathUnits="userSpaceOnUse" id="clipPath2">
        <path d="M144 66 L677 66 L677 275 L144 275 L144 66 Z"/>
      </clipPath>
    </defs>
    <g fill="white" text-rendering="geometricPrecision" shape-rendering="geometricPrecision" transform="translate(-144,-66)" stroke="white">
      <rect x="144" width="533" height="209" y="66" clip-path="url(#clipPath2)" stroke="none"/>
    </g>
    <g text-rendering="geometricPrecision" stroke-miterlimit="1.45" shape-rendering="geometricPrecision" transform="matrix(1,0,0,1,-144,-66)" stroke-linecap="butt">
      <rect x="299.5" y="82" clip-path="url(#clipPath2)" fill="none" width="80" rx="20" ry="20" height="40"/>
      <text x="317.4893" xml:space="preserve" y="106.7139" clip-path="url(#clipPath2)" font-family="sans-serif" stroke="none">External</text>
    </g>
    <g text-rendering="geometricPrecision" stroke-miterlimit="1.45" shape-rendering="geometricPrecision" transform="matrix(1,0,0,1,-144,-66)" stroke-linecap="butt">
      <rect x="159" y="149" clip-path="url(#clipPath2)" fill="none" width="80" rx="20" ry="20" height="40"/>
      <text x="178.9873" xml:space="preserve" y="173.7139" clip-path="url(#clipPath2)" font-family="sans-serif" stroke="none">Internal</text>
    </g>
    <g text-rendering="geometricPrecision" stroke-miterlimit="1.45" shape-rendering="geometricPrecision" transform="matrix(1,0,0,1,-144,-66)" stroke-linecap="butt">
      <rect x="299.5" y="220" clip-path="url(#clipPath2)" fill="none" width="80" rx="20" ry="20" height="40"/>
      <text x="318.8252" xml:space="preserve" y="244.7139" clip-path="url(#clipPath2)" font-family="sans-serif" stroke="none">Cashier</text>
    </g>
    <g text-rendering="geometricPrecision" stroke-miterlimit="1.45" shape-rendering="geometricPrecision" transform="matrix(1,0,0,1,-144,-66)" stroke-linecap="butt">
      <rect x="440" y="149" clip-path="url(#clipPath2)" fill="none" width="80" rx="20" ry="20" height="40"/>
      <text x="445.3125" xml:space="preserve" y="173.7139" clip-path="url(#clipPath2)" font-family="sans-serif" stroke="none">Safetey vault</text>
    </g>
    <g text-rendering="geometricPrecision" stroke-miterlimit="1.45" shape-rendering="geometricPrecision" transform="matrix(1,0,0,1,-144,-66)" stroke-linecap="butt">
      <rect x="582" y="149" clip-path="url(#clipPath2)" fill="none" width="80" rx="20" ry="20" height="40"/>
      <text x="595.9873" xml:space="preserve" y="173.7139" clip-path="url(#clipPath2)" font-family="sans-serif" stroke="none">Main safe</text>
    </g>
    <g text-rendering="geometricPrecision" stroke-miterlimit="1.45" shape-rendering="geometricPrecision" transform="matrix(1,0,0,1,-144,-66)" stroke-linecap="butt">
      <path fill="none" d="M299.4698 102 L199 102 L199 141.0112" clip-path="url(#clipPath2)"/>
    </g>
    <g text-rendering="geometricPrecision" stroke-miterlimit="1.45" shape-rendering="geometricPrecision" transform="matrix(1,0,0,1,-144,-66)" stroke-linecap="butt">
      <path d="M199 149.0112 L204 137.0112 L199 140.0112 L194 137.0112 Z" stroke="none" clip-path="url(#clipPath2)"/>
      <text x="241.3506" y="95.3633" clip-path="url(#clipPath2)" font-family="sans-serif" stroke="none" font-weight="bold" xml:space="preserve">1</text>
      <path fill="none" d="M199 189.0034 L199 240 L291.4698 240" clip-path="url(#clipPath2)"/>
      <path d="M299.4698 240 L287.4698 235 L290.4698 240 L287.4698 245 Z" clip-path="url(#clipPath2)" stroke="none"/>
      <text x="241.3506" y="233.3633" clip-path="url(#clipPath2)" font-family="sans-serif" stroke="none" font-weight="bold" xml:space="preserve">5</text>
      <path fill="none" d="M239.0302 169 L432.0247 169" clip-path="url(#clipPath2)"/>
      <path d="M440.0247 169 L428.0247 164 L431.0247 169 L428.0247 174 Z" clip-path="url(#clipPath2)" stroke="none"/>
      <text x="336.1631" y="162.3633" clip-path="url(#clipPath2)" font-family="sans-serif" stroke="none" font-weight="bold" xml:space="preserve">2</text>
      <path fill="none" d="M379.5302 240 L480 240 L480 197.0034" clip-path="url(#clipPath2)"/>
      <path d="M480 189.0034 L475 201.0034 L480 198.0034 L485 201.0034 Z" clip-path="url(#clipPath2)" stroke="none"/>
      <text x="430.9756" y="233.3633" clip-path="url(#clipPath2)" font-family="sans-serif" stroke="none" font-weight="bold" xml:space="preserve">6</text>
      <path fill="none" d="M379.5302 102 L480 102 L480 141.0112" clip-path="url(#clipPath2)"/>
      <path d="M480 149.0112 L485 137.0112 L480 140.0112 L475 137.0112 Z" clip-path="url(#clipPath2)" stroke="none"/>
      <text x="430.9756" y="95.3633" clip-path="url(#clipPath2)" font-family="sans-serif" stroke="none" font-weight="bold" xml:space="preserve">3</text>
      <path fill="none" d="M519.9722 169 L573.9959 169" clip-path="url(#clipPath2)"/>
      <path d="M581.9959 169 L569.9959 164 L572.9959 169 L569.9959 174 Z" clip-path="url(#clipPath2)" stroke="none"/>
      <text x="547.6631" y="162.3633" clip-path="url(#clipPath2)" font-family="sans-serif" stroke="none" font-weight="bold" xml:space="preserve">4</text>
    </g>
  </g>
</svg>
